# xmcd
#
# Track frame offsets: 
#        150
#        21669
#        47555
#        71305
#        94390
#        113719
#        141407
#        159456
#        176779
#        199255
#
# Disc length: 2967 seconds
#
# Revision: 0
# Processed by: cddbd v1.5.2PL0 Copyright (c) Steve Scherf et al.
# Submitted via: ExactAudioCopy v0.99pb5
#
DISCID=910b950a
DTITLE=Bobby Jones and Friends - Arizona Princess
DYEAR=2008
DGENRE=Blues
TTITLE0=Extra Sauce
TTITLE1=Statesboro Blues
TTITLE2=A Change Is Gonna Come
TTITLE3=Checkin' Up On My Baby
TTITLE4=TC Shuffle
TTITLE5=Bobby's Blues
TTITLE6=Need Some Lovin' Tonight
TTITLE7=Before You Accuse Me
TTITLE8=Juzsumfunk
TTITLE9=Arizona Princess
EXTD=
EXTT0=
EXTT1=
EXTT2=
EXTT3=
EXTT4=
EXTT5=
EXTT6=
EXTT7=
EXTT8=
EXTT9=
PLAYORDER=
